:SAMPLES-PER-SECOND 30
:FULLY-SPECIFIED
:DEGREES
171
root  -47.6144 38.4685 0.791594 47.7906 -85.1182 -52.907
RightUpLeg  -17.7593 -3.50004 5.40346
RightLeg  27.5033 0.808636 0.209536
RightFoot  -4.75816 0.15723 -3.29805
RightToes  -3.0268e-009 0 -3.6325e-017
Spine  4.32536 -0.0932999 10.5972
Spine1  6.86355 1.2775 1.54823
HEad  -19.2551 -6.45426 -1.14465
LeftShoulder1  -0.630387 4.99579 -36.044
LeftArm  2.93054 13.8741 -37.4277
LeftForeArm  40.6812 -11.5678 -8.85392
LeftHand  -0.462991 12.5674 -6.10566
RightShoulder  -1.33763 -6.9354 32.473
RightArm  16.6945 7.94161 41.9806
RightForeArm  8.36421 16.3263 5.35824
RightHand  -0.0957091 4.47736 -1.40983
LeftUpLeg  -1.37522 -0.691067 8.77391
LeftLeg  60.4389 -3.00001 -5.16865
LeftFoot  4.70659 1.20342 -8.70675
LeftToes  2.52475e-009 -1.26109e-010 3.16044e-011
172
root  -48.7609 38.7408 0.65542 46.5101 -85.6433 -52.0305
RightUpLeg  -14.8513 -3.90218 5.0852
RightLeg  26.6902 1.42067 0.526406
RightFoot  -6.28249 0.11249 -3.49278
RightToes  -3.0268e-009 0 -3.6325e-017
Spine  4.2287 0.426129 11.309
Spine1  6.95883 2.18162 0.213487
HEad  -18.3851 -7.39578 -0.89126
LeftShoulder1  -0.616522 4.97416 -35.7132
LeftArm  5.63549 16.4589 -37.0207
LeftForeArm  36.3596 -13.5564 -8.1857
LeftHand  -0.487327 12.5947 -6.41717
RightShoulder  -1.39946 -7.07948 32.6272
RightArm  18.3501 11.6748 42.0547
RightForeArm  7.13311 18.8086 4.88542
RightHand  -0.0784636 4.28588 -1.21863
LeftUpLeg  -5.5337 -0.803247 8.14484
LeftLeg  63.6385 -2.25752 -4.35368
LeftFoot  2.5637 0.813875 -6.81405
LeftToes  2.52475e-009 -1.26109e-010 3.16044e-011
173
root  -49.9146 39.0143 0.566644 46.7839 -86.5683 -52.8173
RightUpLeg  -11.5884 -4.46782 4.38873
RightLeg  25.4252 2.53939 1.01778
RightFoot  -7.75233 0.0524985 -3.3479
RightToes  -3.0268e-009 0 -3.6325e-017
Spine  4.25613 0.913265 12.2239
Spine1  6.84853 3.17661 -1.81495
HEad  -17.2863 -8.0493 -0.634709
LeftShoulder1  -0.545777 4.83245 -34.9099
LeftArm  7.19227 19.3654 -37.1493
LeftForeArm  32.0755 -15.5056 -7.1887
LeftHand  -0.33581 11.535 -4.96896
RightShoulder  -1.38421 -7.07121 32.2848
RightArm  18.765 14.7018 42.632
RightForeArm  7.1026 20.7723 4.58248
RightHand  -0.122733 4.18853 -1.763
LeftUpLeg  -8.87389 -0.908159 6.91573
LeftLeg  63.807 -1.8711 -3.52883
LeftFoot  0.828795 0.571284 -5.39
LeftToes  2.52475e-009 -1.26109e-010 3.16044e-011
174
root  -51.0207 39.2201 0.470762 49.5643 -87.4293 -55.524
RightUpLeg  -9.11071 -5.39903 3.75998
RightLeg  24.2261 4.0363 1.63493
RightFoot  -9.04725 0.00808327 -3.47711
RightToes  -3.0268e-009 0 -3.6325e-017
Spine  3.6868 1.52532 12.7502
Spine1  6.91763 3.96896 -3.08007
HEad  -16.5604 -8.04977 -0.75393
LeftShoulder1  -0.54682 4.83584 -34.8765
LeftArm  8.88465 20.9868 -36.8667
LeftForeArm  28.7407 -16.9121 -6.48113
LeftHand  -0.333126 10.8179 -5.58378
RightShoulder  -1.27314 -6.88462 31.1544
RightArm  18.696 17.1908 43.3532
RightForeArm  6.64608 22.5609 4.56452
RightHand  -0.124929 3.91956 -1.80561
LeftUpLeg  -12.5299 -0.677918 5.93506
LeftLeg  61.7658 -1.97108 -3.40204
LeftFoot  -1.3842 0.349695 -3.92765
LeftToes  2.52475e-009 -1.26109e-010 3.16044e-011
175
root  -52.1383 39.4128 0.373921 50.2833 -88.0412 -56.7121
RightUpLeg  -5.89853 -6.70437 2.9843
RightLeg  22.8216 5.65347 2.31884
RightFoot  -10.1248 -0.0269964 -3.87745
RightToes  -3.0268e-009 0 -3.6325e-017
Spine  3.6489 1.86404 12.8321
Spine1  6.84463 4.37494 -3.99661
HEad  -15.8037 -8.06529 -0.94509
LeftShoulder1  -0.537298 4.81945 -34.6621
LeftArm  9.24067 22.1422 -37.0728
LeftForeArm  27.7927 -17.8522 -5.91418
LeftHand  -0.354427 11.1871 -5.59464
RightShoulder  -1.21861 -6.79886 30.4751
RightArm  17.9467 19.4945 43.8876
RightForeArm  6.54487 23.8269 4.75071
RightHand  -0.233174 4.39968 -3.05749
LeftUpLeg  -14.7959 -0.790283 5.01866
LeftLeg  56.9915 -2.24245 -3.21951
LeftFoot  -3.18352 0.2468 -3.20401
LeftToes  2.52475e-009 -1.26109e-010 3.16044e-011
176
root  -53.2033 39.5397 0.275052 64.6089 -88.6854 -71.1135
RightUpLeg  -3.38118 -7.16556 2.44234
RightLeg  21.6631 6.85407 2.64839
RightFoot  -11.1698 -0.0694076 -4.04506
RightToes  -3.0268e-009 0 -3.6325e-017
Spine  3.65531 2.2297 13.0111
Spine1  6.39707 4.7736 -5.10985
HEad  -15.3064 -8.04634 -0.854129
LeftShoulder1  -0.511125 4.76229 -34.4388
LeftArm  8.62806 22.7794 -37.3782
LeftForeArm  27.6912 -18.1889 -5.65262
LeftHand  -0.28872 10.8552 -4.65824
RightShoulder  -1.18185 -6.74334 29.9743
RightArm  17.8858 21.5343 44.3167
RightForeArm  6.48552 24.9187 4.99874
RightHand  -0.25224 4.28873 -3.32601
LeftUpLeg  -16.6723 -0.305815 4.41147
LeftLeg  50.1005 -2.32175 -2.5623
LeftFoot  -4.1869 0.229979 -3.28808
LeftToes  2.52475e-009 -1.26109e-010 3.16044e-011
177
root  -54.2339 39.6361 0.211164 100.798 -89.1547 -107.434
RightUpLeg  -0.800212 -7.64357 1.677
RightLeg  20.3669 7.99428 2.88933
RightFoot  -12.1457 -0.112245 -4.29505
RightToes  -3.0268e-009 0 -3.6325e-017
Spine  3.5171 2.52805 12.8311
Spine1  6.48972 5.01262 -5.89985
HEad  -15.3112 -7.68656 -1.07601
LeftShoulder1  -0.575806 4.89511 -35.2051
LeftArm  7.36885 21.845 -36.9945
LeftForeArm  29.1445 -17.448 -5.96232
LeftHand  -0.322314 11.0982 -5.08991
RightShoulder  -1.12576 -6.63216 29.4517
RightArm  18.5208 23.512 44.6156
RightForeArm  6.77415 25.6688 5.1517
RightHand  -0.213094 5.41007 -2.59589
LeftUpLeg  -17.4606 0.216742 3.66838
LeftLeg  41.0076 -2.09235 -1.58509
LeftFoot  -3.9922 0.3066 -4.37301
LeftToes  2.52475e-009 -1.26109e-010 3.16044e-011
178
root  -55.246 39.7367 0.131061 152.332 -88.957 -158.886
RightUpLeg  1.59357 -7.79757 1.16077
RightLeg  18.8398 8.99878 2.94336
RightFoot  -12.7296 -0.142447 -4.66237
RightToes  -3.0268e-009 0 -3.6325e-017
Spine  3.17651 2.7617 12.1772
Spine1  6.59012 5.03541 -6.17719
HEad  -15.3847 -6.89867 -1.14572
LeftShoulder1  -0.586794 4.90704 -35.6224
LeftArm  6.65849 20.8418 -36.8577
LeftForeArm  29.5829 -16.4377 -6.52105
LeftHand  -0.319312 11.3176 -4.82118
RightShoulder  -0.992848 -6.3197 28.7169
RightArm  18.6486 24.3704 45.3157
RightForeArm  7.51078 26.5885 5.32019
RightHand  -0.217431 4.78484 -2.77323
LeftUpLeg  -17.5449 1.00744 3.21386
LeftLeg  30.3182 -2.00168 -0.913489
LeftFoot  -2.73295 0.422973 -5.41147
LeftToes  2.52475e-009 -1.26109e-010 3.16044e-011
